<?xml version="1.0" encoding="UTF-8" standalone="no"?>
<!-- Created with Inkscape (http://www.inkscape.org/) -->

<svg
   width="309.02179mm"
   height="67.799103mm"
   viewBox="0 0 309.02179 67.799102"
   version="1.1"
   id="svg5"
   inkscape:version="1.1.2 (b8e25be833, 2022-02-05)"
   sodipodi:docname="subfunctions-title.svg"
   xmlns:inkscape="http://www.inkscape.org/namespaces/inkscape"
   xmlns:sodipodi="http://sodipodi.sourceforge.net/DTD/sodipodi-0.dtd"
   xmlns:xlink="http://www.w3.org/1999/xlink"
   xmlns="http://www.w3.org/2000/svg"
   xmlns:svg="http://www.w3.org/2000/svg">
  <sodipodi:namedview
     id="namedview7"
     pagecolor="#ffffff"
     bordercolor="#666666"
     borderopacity="1.0"
     inkscape:pageshadow="2"
     inkscape:pageopacity="0.0"
     inkscape:pagecheckerboard="0"
     inkscape:document-units="mm"
     showgrid="false"
     inkscape:zoom="0.733172"
     inkscape:cx="478.05972"
     inkscape:cy="38.19022"
     inkscape:window-width="1920"
     inkscape:window-height="1009"
     inkscape:window-x="-8"
     inkscape:window-y="-8"
     inkscape:window-maximized="1"
     inkscape:current-layer="g33095"
     fit-margin-top="0"
     fit-margin-left="0"
     fit-margin-right="0"
     fit-margin-bottom="0" />
  <defs
     id="defs2">
    <linearGradient
       id="linearGradient22497"
       inkscape:swatch="solid">
      <stop
         style="stop-color:#000000;stop-opacity:1;"
         offset="0"
         id="stop22495" />
    </linearGradient>
    <linearGradient
       id="linearGradient22377"
       inkscape:swatch="solid">
      <stop
         style="stop-color:#b10072;stop-opacity:1;"
         offset="0"
         id="stop22375" />
    </linearGradient>
    <linearGradient
       id="linearGradient22335"
       inkscape:swatch="solid">
      <stop
         style="stop-color:#ca0045;stop-opacity:1;"
         offset="0"
         id="stop22333" />
    </linearGradient>
    <filter
       style="color-interpolation-filters:sRGB"
       inkscape:label="Blur"
       id="filter17312"
       x="-0.015482962"
       y="-0.070569865"
       width="1.0309659"
       height="1.1411397">
      <feGaussianBlur
         stdDeviation="0.31 0.31"
         result="fbSourceGraphic"
         id="feGaussianBlur17310" />
      <feColorMatrix
         result="fbSourceGraphicAlpha"
         in="fbSourceGraphic"
         values="0 0 0 -1 0 0 0 0 -1 0 0 0 0 -1 0 0 0 0 1 0"
         id="feColorMatrix17332" />
      <feGaussianBlur
         id="feGaussianBlur17334"
         stdDeviation="0.31 0.31"
         result="blur"
         in="fbSourceGraphic" />
    </filter>
    <linearGradient
       inkscape:collect="always"
       xlink:href="#linearGradient22335"
       id="linearGradient29043"
       gradientUnits="userSpaceOnUse"
       x1="19.336761"
       y1="87.757896"
       x2="116.4424"
       y2="87.757896"
       gradientTransform="translate(-4.4204132,24.055741)" />
    <linearGradient
       inkscape:collect="always"
       xlink:href="#linearGradient22335"
       id="linearGradient29060"
       gradientUnits="userSpaceOnUse"
       x1="19.336761"
       y1="87.757896"
       x2="116.4424"
       y2="87.757896"
       gradientTransform="matrix(0.95836835,0,0,0.95836835,1.5677503,10.352106)" />
    <linearGradient
       inkscape:collect="always"
       xlink:href="#linearGradient22335"
       id="linearGradient29064"
       gradientUnits="userSpaceOnUse"
       x1="19.336761"
       y1="87.757896"
       x2="116.4424"
       y2="87.757896"
       gradientTransform="matrix(0.95836835,0,0,0.95836835,1.5677503,10.352106)" />
    <linearGradient
       inkscape:collect="always"
       xlink:href="#linearGradient22335"
       id="linearGradient29076"
       gradientUnits="userSpaceOnUse"
       x1="19.336761"
       y1="87.757896"
       x2="116.4424"
       y2="87.757896"
       gradientTransform="matrix(0.91250775,0,0,0.91250775,5.4102221,10.213398)" />
    <linearGradient
       inkscape:collect="always"
       xlink:href="#linearGradient22335"
       id="linearGradient29080"
       gradientUnits="userSpaceOnUse"
       x1="19.336761"
       y1="87.757896"
       x2="116.4424"
       y2="87.757896"
       gradientTransform="matrix(0.91250775,0,0,0.91250775,5.4102221,10.213398)" />
    <linearGradient
       inkscape:collect="always"
       xlink:href="#linearGradient22335"
       id="linearGradient1754"
       gradientUnits="userSpaceOnUse"
       gradientTransform="matrix(0.91250775,0,0,0.91250775,5.4102221,10.213398)"
       x1="19.336761"
       y1="87.757896"
       x2="116.4424"
       y2="87.757896" />
    <linearGradient
       inkscape:collect="always"
       xlink:href="#linearGradient22335"
       id="linearGradient1756"
       gradientUnits="userSpaceOnUse"
       gradientTransform="matrix(0.91250775,0,0,0.91250775,5.4102221,10.213398)"
       x1="19.336761"
       y1="87.757896"
       x2="116.4424"
       y2="87.757896" />
    <linearGradient
       inkscape:collect="always"
       xlink:href="#linearGradient22335"
       id="linearGradient1758"
       gradientUnits="userSpaceOnUse"
       gradientTransform="translate(-4.4204132,24.055741)"
       x1="19.336761"
       y1="87.757896"
       x2="116.4424"
       y2="87.757896" />
    <linearGradient
       inkscape:collect="always"
       xlink:href="#linearGradient22335"
       id="linearGradient1760"
       gradientUnits="userSpaceOnUse"
       gradientTransform="translate(-4.4204132,24.055741)"
       x1="19.336761"
       y1="87.757896"
       x2="116.4424"
       y2="87.757896" />
    <linearGradient
       inkscape:collect="always"
       xlink:href="#linearGradient22335"
       id="linearGradient1762"
       gradientUnits="userSpaceOnUse"
       gradientTransform="translate(-4.4204132,24.055741)"
       x1="19.336761"
       y1="87.757896"
       x2="116.4424"
       y2="87.757896" />
    <linearGradient
       inkscape:collect="always"
       xlink:href="#linearGradient22335"
       id="linearGradient1764"
       gradientUnits="userSpaceOnUse"
       gradientTransform="translate(-4.4204132,24.055741)"
       x1="19.336761"
       y1="87.757896"
       x2="116.4424"
       y2="87.757896" />
    <linearGradient
       inkscape:collect="always"
       xlink:href="#linearGradient22335"
       id="linearGradient1766"
       gradientUnits="userSpaceOnUse"
       gradientTransform="translate(-4.4204132,24.055741)"
       x1="19.336761"
       y1="87.757896"
       x2="116.4424"
       y2="87.757896" />
    <linearGradient
       inkscape:collect="always"
       xlink:href="#linearGradient22335"
       id="linearGradient1768"
       gradientUnits="userSpaceOnUse"
       gradientTransform="translate(-4.4204132,24.055741)"
       x1="19.336761"
       y1="87.757896"
       x2="116.4424"
       y2="87.757896" />
    <linearGradient
       inkscape:collect="always"
       xlink:href="#linearGradient22335"
       id="linearGradient1770"
       gradientUnits="userSpaceOnUse"
       gradientTransform="translate(-4.4204132,24.055741)"
       x1="19.336761"
       y1="87.757896"
       x2="116.4424"
       y2="87.757896" />
    <linearGradient
       inkscape:collect="always"
       xlink:href="#linearGradient22335"
       id="linearGradient1772"
       gradientUnits="userSpaceOnUse"
       gradientTransform="translate(-4.4204132,24.055741)"
       x1="19.336761"
       y1="87.757896"
       x2="116.4424"
       y2="87.757896" />
    <linearGradient
       inkscape:collect="always"
       xlink:href="#linearGradient22335"
       id="linearGradient1774"
       gradientUnits="userSpaceOnUse"
       gradientTransform="translate(-4.4204132,24.055741)"
       x1="19.336761"
       y1="87.757896"
       x2="116.4424"
       y2="87.757896" />
    <linearGradient
       inkscape:collect="always"
       xlink:href="#linearGradient22335"
       id="linearGradient1776"
       gradientUnits="userSpaceOnUse"
       gradientTransform="translate(-4.4204132,24.055741)"
       x1="19.336761"
       y1="87.757896"
       x2="116.4424"
       y2="87.757896" />
    <linearGradient
       inkscape:collect="always"
       xlink:href="#linearGradient22335"
       id="linearGradient1778"
       gradientUnits="userSpaceOnUse"
       gradientTransform="translate(-4.4204132,24.055741)"
       x1="19.336761"
       y1="87.757896"
       x2="116.4424"
       y2="87.757896" />
    <linearGradient
       inkscape:collect="always"
       xlink:href="#linearGradient22335"
       id="linearGradient1780"
       gradientUnits="userSpaceOnUse"
       gradientTransform="translate(-4.4204132,24.055741)"
       x1="19.336761"
       y1="87.757896"
       x2="116.4424"
       y2="87.757896" />
    <linearGradient
       inkscape:collect="always"
       xlink:href="#linearGradient22335"
       id="linearGradient1782"
       gradientUnits="userSpaceOnUse"
       gradientTransform="matrix(0.95836835,0,0,0.95836835,1.5677503,10.352106)"
       x1="19.336761"
       y1="87.757896"
       x2="116.4424"
       y2="87.757896" />
    <linearGradient
       inkscape:collect="always"
       xlink:href="#linearGradient22335"
       id="linearGradient1784"
       gradientUnits="userSpaceOnUse"
       gradientTransform="matrix(0.95836835,0,0,0.95836835,1.5677503,10.352106)"
       x1="19.336761"
       y1="87.757896"
       x2="116.4424"
       y2="87.757896" />
  </defs>
  <g
     inkscape:label="Layer 1"
     inkscape:groupmode="layer"
     id="layer1"
     transform="translate(91.041735,-77.914081)">
    <g
       id="g29146">
      <g
         id="g29254"
         style="fill:#7969ff;fill-opacity:1">
        <g
           id="g33095"
           style="fill:#80e5ff">
          <g
             aria-label="&lt;"
             transform="matrix(1.5546867,0,0,6.6502446,-140.61206,-247.71628)"
             id="text13305-7"
             style="font-size:20.7215px;line-height:1.25;fill:#80e5ff;fill-opacity:0.6;stroke:url(#linearGradient29076);stroke-width:0;stroke-linecap:round;stroke-linejoin:bevel">
            <path
               d="m 41.644273,59.160149 -9.759826,-4.289351 v -1.036075 l 9.759826,-4.869552 v 1.616277 l -7.812005,3.688427 7.812005,3.273997 z"
               id="path29178"
               style="fill:#80e5ff;fill-opacity:0.6;stroke:url(#linearGradient1754)" />
          </g>
          <g
             aria-label="&gt;"
             transform="matrix(1.5546867,0,0,6.6502446,-140.61206,-247.71628)"
             id="text14987-3"
             style="font-size:20.7215px;line-height:1.25;fill:#80e5ff;fill-opacity:0.6;stroke:url(#linearGradient29080);stroke-width:0;stroke-linecap:round;stroke-linejoin:bevel">
            <path
               d="m 220.89251,57.543872 7.812,-3.253276 -7.812,-3.709148 v -1.616277 l 9.75982,4.869552 v 1.036075 l -9.75982,4.289351 z"
               id="path29212"
               style="fill:#80e5ff;fill-opacity:0.6;stroke:url(#linearGradient1756)" />
          </g>
          <g
             aria-label="Subfunctions"
             id="text4741"
             style="font-size:11.8366px;line-height:1.25;font-family:je;-inkscape-font-specification:je;fill:#80e5ff;fill-opacity:1;stroke:url(#linearGradient29043);stroke-width:0;stroke-linecap:round;stroke-linejoin:bevel"
             transform="matrix(3.2154389,0,0,3.2154389,-140.61206,-247.71628)">
            <path
               d="m 32.90116,114.02117 q 0,1.12448 -0.816726,1.75182 -0.816725,0.62734 -2.201607,0.62734 -0.710196,0 -1.313863,-0.10653 -0.603666,-0.10653 -1.006111,-0.29592 v -1.01795 q 0.426118,0.18939 1.053458,0.34326 0.639176,0.15388 1.313862,0.15388 0.935092,0 1.420392,-0.36693 0.485301,-0.36694 0.485301,-0.99428 0,-0.41428 -0.177549,-0.69836 -0.177549,-0.28408 -0.615503,-0.52081 -0.437955,-0.23673 -1.195497,-0.52081 -1.088967,-0.39061 -1.633451,-0.95876 -0.544483,-0.56816 -0.544483,-1.5506 0,-0.66285 0.343261,-1.14815 0.343261,-0.4853 0.946928,-0.7457 0.603667,-0.26041 1.408555,-0.26041 0.686523,0 1.266517,0.1302 0.579993,0.13021 1.065294,0.34326 l -0.331425,0.91142 q -0.437954,-0.18938 -0.958765,-0.31959 -0.52081,-0.1302 -1.065294,-0.1302 -0.793052,0 -1.195496,0.34326 -0.402445,0.33143 -0.402445,0.88775 0,0.42612 0.177549,0.71019 0.177549,0.28408 0.579994,0.52082 0.402444,0.22489 1.088967,0.47346 0.745706,0.27224 1.254679,0.59183 0.520811,0.30775 0.781216,0.74571 0.272242,0.43795 0.272242,1.1008 z"
               id="path29184"
               style="fill:#80e5ff;fill-opacity:1;stroke:url(#linearGradient1758)" />
            <path
               d="m 39.766386,109.93754 v 6.34442 H 38.91415 l -0.153875,-0.8404 h -0.04735 q -0.307752,0.49714 -0.852235,0.73387 -0.544484,0.2249 -1.159987,0.2249 -1.14815,0 -1.728144,-0.54449 -0.579993,-0.55632 -0.579993,-1.76365 v -4.15465 h 1.053457 v 4.08363 q 0,1.51508 1.408556,1.51508 1.053457,0 1.455902,-0.59183 0.414281,-0.59183 0.414281,-1.70447 v -3.30241 z"
               id="path29186"
               style="fill:#80e5ff;fill-opacity:1;stroke:url(#linearGradient1760)" />
            <path
               d="m 42.820229,107.28614 v 2.18977 q 0,0.40245 -0.02367,0.75755 -0.01184,0.34326 -0.03551,0.54448 h 0.05918 q 0.272242,-0.40244 0.745706,-0.67469 0.473464,-0.27224 1.21917,-0.27224 1.18366,0 1.893856,0.82856 0.722032,0.81673 0.722032,2.45018 0,1.63345 -0.722032,2.46201 -0.722033,0.82857 -1.893856,0.82857 -0.745706,0 -1.21917,-0.27225 -0.473464,-0.27224 -0.745706,-0.65101 h -0.08286 l -0.213059,0.80489 h -0.745706 v -8.99582 z m 1.787327,3.40894 q -1.017948,0 -1.408556,0.58 -0.378771,0.57999 -0.378771,1.79916 v 0.0473 q 0,1.17182 0.378771,1.79916 0.390608,0.6155 1.432229,0.6155 0.852235,0 1.266516,-0.62734 0.426118,-0.62734 0.426118,-1.811 0,-2.40283 -1.716307,-2.40283 z"
               id="path29188"
               style="fill:#80e5ff;fill-opacity:1;stroke:url(#linearGradient1762)" />
            <path
               d="m 51.981755,110.74243 h -1.597941 v 5.53953 h -1.041621 v -5.53953 h -1.11264 v -0.4853 l 1.11264,-0.3551 v -0.36693 q 0,-1.23101 0.532647,-1.76366 0.544484,-0.54448 1.526922,-0.54448 0.366934,0 0.686523,0.071 0.319588,0.0592 0.544483,0.14204 l -0.272242,0.81672 q -0.189385,-0.0592 -0.437954,-0.11836 -0.248568,-0.0592 -0.508974,-0.0592 -0.52081,0 -0.781215,0.35509 -0.248569,0.34326 -0.248569,1.08897 v 0.41428 h 1.597941 z"
               id="path29190"
               style="fill:#80e5ff;fill-opacity:1;stroke:url(#linearGradient1764)" />
            <path
               d="m 58.432701,109.93754 v 6.34442 h -0.852236 l -0.153875,-0.8404 h -0.04735 q -0.307751,0.49714 -0.852235,0.73387 -0.544484,0.2249 -1.159987,0.2249 -1.14815,0 -1.728144,-0.54449 -0.579993,-0.55632 -0.579993,-1.76365 v -4.15465 h 1.053457 v 4.08363 q 0,1.51508 1.408556,1.51508 1.053457,0 1.455902,-0.59183 0.414281,-0.59183 0.414281,-1.70447 v -3.30241 z"
               id="path29192"
               style="fill:#80e5ff;fill-opacity:1;stroke:url(#linearGradient1766)" />
            <path
               d="m 63.498766,109.81918 q 1.136314,0 1.716307,0.55632 0.579994,0.55632 0.579994,1.77549 v 4.13097 h -1.029785 v -4.05995 q 0,-1.52693 -1.420392,-1.52693 -1.053457,0 -1.455901,0.59183 -0.402445,0.59183 -0.402445,1.70447 v 3.29058 h -1.041621 v -6.34442 h 0.840399 l 0.153876,0.86407 h 0.05918 q 0.307751,-0.49713 0.852235,-0.73387 0.544484,-0.24856 1.14815,-0.24856 z"
               id="path29194"
               style="fill:#80e5ff;fill-opacity:1;stroke:url(#linearGradient1768)" />
            <path
               d="m 70.30481,116.40033 q -0.852235,0 -1.503248,-0.34327 -0.651013,-0.34326 -1.029784,-1.06529 -0.366935,-0.72203 -0.366935,-1.84651 0,-1.17182 0.378771,-1.90569 0.390608,-0.73387 1.065294,-1.07713 0.674686,-0.34326 1.526922,-0.34326 0.473464,0 0.923254,0.10653 0.461628,0.0947 0.745706,0.23673 l -0.319588,0.86407 q -0.284078,-0.10653 -0.66285,-0.20122 -0.378771,-0.0947 -0.710196,-0.0947 -1.870182,0 -1.870182,2.40283 0,1.14815 0.44979,1.76366 0.461628,0.60366 1.361209,0.60366 0.508974,0 0.911419,-0.10653 0.402444,-0.10652 0.733869,-0.2604 v 0.92325 q -0.319588,0.16572 -0.710196,0.24857 -0.378771,0.0947 -0.923255,0.0947 z"
               id="path29196"
               style="fill:#80e5ff;fill-opacity:1;stroke:url(#linearGradient1770)" />
            <path
               d="m 75.560257,115.54809 q 0.236732,0 0.4853,-0.0355 0.248569,-0.0355 0.402445,-0.0947 v 0.79305 q -0.165713,0.0829 -0.473464,0.1302 -0.307752,0.0592 -0.59183,0.0592 -0.497137,0 -0.923255,-0.16572 -0.414281,-0.17755 -0.674686,-0.60366 -0.260405,-0.42612 -0.260405,-1.1955 v -3.69302 H 72.62478 v -0.49714 l 0.911418,-0.41428 0.414281,-1.34937 h 0.615503 v 1.4559 h 1.834673 v 0.80489 h -1.834673 v 3.66935 q 0,0.57999 0.272242,0.86407 0.284079,0.27224 0.722033,0.27224 z"
               id="path29198"
               style="fill:#80e5ff;fill-opacity:1;stroke:url(#linearGradient1772)" />
            <path
               d="m 78.247166,107.55839 q 0.236732,0 0.414281,0.16571 0.189386,0.15387 0.189386,0.49713 0,0.34327 -0.189386,0.50898 -0.177549,0.15387 -0.414281,0.15387 -0.260405,0 -0.437954,-0.15387 -0.177549,-0.16571 -0.177549,-0.50898 0,-0.34326 0.177549,-0.49713 0.177549,-0.16571 0.437954,-0.16571 z m 0.508974,2.37915 v 6.34442 h -1.041621 v -6.34442 z"
               id="path29200"
               style="fill:#80e5ff;fill-opacity:1;stroke:url(#linearGradient1774)" />
            <path
               d="m 86.284208,113.09791 q 0,1.57427 -0.804889,2.43834 -0.793052,0.86408 -2.154261,0.86408 -0.840399,0 -1.503248,-0.37878 -0.651013,-0.3906 -1.029784,-1.12447 -0.378772,-0.74571 -0.378772,-1.79917 0,-1.57426 0.781216,-2.4265 0.793052,-0.85223 2.166098,-0.85223 0.852235,0 1.515085,0.3906 0.662849,0.37877 1.029784,1.11264 0.378771,0.72204 0.378771,1.77549 z m -4.793823,0 q 0,1.12448 0.437954,1.78733 0.449791,0.65101 1.420392,0.65101 0.958765,0 1.408556,-0.65101 0.449791,-0.66285 0.449791,-1.78733 0,-1.12447 -0.449791,-1.76365 -0.449791,-0.63918 -1.420392,-0.63918 -0.970602,0 -1.408556,0.63918 -0.437954,0.63918 -0.437954,1.76365 z"
               id="path29202"
               style="fill:#80e5ff;fill-opacity:1;stroke:url(#linearGradient1776)" />
            <path
               d="m 90.983336,109.81918 q 1.136313,0 1.716307,0.55632 0.579993,0.55632 0.579993,1.77549 v 4.13097 h -1.029784 v -4.05995 q 0,-1.52693 -1.420392,-1.52693 -1.053458,0 -1.455902,0.59183 -0.402444,0.59183 -0.402444,1.70447 v 3.29058 h -1.041621 v -6.34442 h 0.840398 l 0.153876,0.86407 h 0.05918 q 0.307752,-0.49713 0.852235,-0.73387 0.544484,-0.24856 1.148151,-0.24856 z"
               id="path29204"
               style="fill:#80e5ff;fill-opacity:1;stroke:url(#linearGradient1778)" />
            <path
               d="m 99.375484,114.53014 q 0,0.92326 -0.686523,1.39672 -0.686523,0.47347 -1.846509,0.47347 -0.66285,0 -1.148151,-0.10653 -0.473464,-0.10653 -0.840398,-0.29592 v -0.94693 q 0.378771,0.18939 0.911418,0.3551 0.544484,0.15388 1.100804,0.15388 0.793052,0 1.14815,-0.24857 0.355098,-0.26041 0.355098,-0.68652 0,-0.23674 -0.130203,-0.42612 -0.130202,-0.18939 -0.473464,-0.37877 -0.331424,-0.18939 -0.958764,-0.42612 -0.615503,-0.23673 -1.053458,-0.47346 -0.437954,-0.23674 -0.674686,-0.56816 -0.236732,-0.33143 -0.236732,-0.85224 0,-0.80489 0.651013,-1.24284 0.66285,-0.43795 1.728144,-0.43795 0.579993,0 1.07713,0.11836 0.508974,0.11837 0.946928,0.30775 l -0.355098,0.82857 q -0.402444,-0.16572 -0.840398,-0.28408 -0.437954,-0.11837 -0.899582,-0.11837 -0.639176,0 -0.982438,0.21306 -0.331424,0.20122 -0.331424,0.55632 0,0.27224 0.153875,0.44979 0.153876,0.17755 0.508974,0.3551 0.366935,0.17755 0.970601,0.40244 0.603667,0.2249 1.029785,0.46163 0.426117,0.23673 0.651013,0.57999 0.224895,0.33143 0.224895,0.8404 z"
               id="path29206"
               style="fill:#80e5ff;fill-opacity:1;stroke:url(#linearGradient1780)" />
          </g>
          <g
             aria-label="&lt;"
             transform="matrix(1.9451283,0,0,5.3153548,-140.61206,-247.71628)"
             id="text13305"
             style="font-size:17.495px;line-height:1.25;fill:#80e5ff;fill-opacity:0.8;stroke:url(#linearGradient29060);stroke-width:0;stroke-linecap:round;stroke-linejoin:bevel">
            <path
               d="m 43.045617,71.943648 -8.240146,-3.621465 v -0.87475 l 8.240146,-4.111325 v 1.36461 l -6.595616,3.11411 6.595616,2.76421 z"
               id="path29181"
               style="fill:#80e5ff;fill-opacity:0.8;stroke:url(#linearGradient1782)" />
          </g>
          <g
             aria-label="&gt;"
             transform="matrix(1.9451283,0,0,5.3153548,-140.61206,-247.71628)"
             id="text14987"
             style="font-size:17.495px;line-height:1.25;fill:#80e5ff;fill-opacity:0.8;stroke:url(#linearGradient29064);stroke-width:0;stroke-linecap:round;stroke-linejoin:bevel">
            <path
               d="m 166.7927,70.579038 6.59562,-2.746715 -6.59562,-3.131605 v -1.36461 l 8.24015,4.111325 v 0.87475 l -8.24015,3.621465 z"
               id="path29209"
               style="fill:#80e5ff;fill-opacity:0.8;stroke:url(#linearGradient1784)" />
          </g>
        </g>
      </g>
    </g>
  </g>
</svg>
